<svg width="60" height="75" viewBox="0 0 60 75" fill="none" xmlns="http://www.w3.org/2000/svg">
<path d="M30 45.0007C38.2728 45.0007 45.0005 38.273 45.0005 30.0003C45.0005 21.7275 38.2728 14.9998 30 14.9998C21.7273 14.9998 14.9996 21.7275 14.9996 30.0003C14.9996 38.273 21.7273 45.0007 30 45.0007ZM30 22.5C34.1364 22.5 37.5003 25.8639 37.5003 30.0003C37.5003 34.1367 34.1364 37.5005 30 37.5005C25.8637 37.5005 22.4998 34.1367 22.4998 30.0003C22.4998 25.8639 25.8637 22.5 30 22.5Z" fill="black"/>
<path d="M27.825 74.3048C28.4601 74.757 29.2204 75 30 75C30.7797 75 31.54 74.757 32.1751 74.3048C33.3151 73.4985 60.1097 54.1517 60.001 30.0009C60.001 13.4592 46.5418 0 30 0C13.4583 0 -0.000890552 13.4592 -0.000890552 29.9822C-0.109644 54.1517 26.6849 73.4985 27.825 74.3048ZM30 7.50023C42.4092 7.50023 52.5007 17.5918 52.5007 30.0197C52.5795 46.6627 36.0452 61.6069 30 66.5083C23.9586 61.6031 7.42059 46.6552 7.49934 30.0009C7.49934 17.5918 17.5909 7.50023 30 7.50023Z" fill="black"/>
</svg>
