<svg width="69" height="68" viewBox="0 0 69 68" fill="none" xmlns="http://www.w3.org/2000/svg">
<path d="M19.8585 4C21.5851 4 28.4916 19.5396 28.4916 21.2662C28.4916 24.7194 23.3118 28.1727 21.5851 31.6259C19.8585 35.0791 23.3118 38.5324 26.765 41.9856C28.1118 43.3324 33.6715 48.8921 37.1247 47.1655C40.578 45.4389 44.0312 40.259 47.4844 40.259C49.211 40.259 64.7506 47.1655 64.7506 48.8921C64.7506 55.7986 59.5708 60.9784 54.3909 62.705C49.211 64.4317 45.7578 64.4317 38.8513 62.705C31.9449 60.9784 26.765 59.2518 18.1319 50.6187C9.49881 41.9856 7.77219 36.8058 6.04557 29.8993C4.31896 22.9928 4.31896 19.5396 6.04557 14.3597C7.77219 9.17986 12.952 4 19.8585 4Z" stroke="black" stroke-width="7.58333" stroke-linecap="round" stroke-linejoin="round"/>
</svg>
