<svg width="76" height="75" viewBox="0 0 76 75" fill="none" xmlns="http://www.w3.org/2000/svg">
<path d="M37.7506 68.1818C41.7798 68.1818 45.7695 67.3882 49.492 65.8463C53.2145 64.3044 56.5969 62.0444 59.4459 59.1953C62.295 56.3462 64.555 52.9639 66.0969 49.2414C67.6388 45.5189 68.4324 41.5292 68.4324 37.5C68.4324 33.4708 67.6388 29.4811 66.0969 25.7586C64.555 22.0361 62.295 18.6537 59.4459 15.8047C56.5969 12.9556 53.2145 10.6956 49.492 9.1537C45.7695 7.61179 41.7798 6.81818 37.7506 6.81818C29.6133 6.81818 21.8092 10.0507 16.0553 15.8047C10.3013 21.5586 7.06879 29.3627 7.06879 37.5C7.06879 45.6373 10.3013 53.4414 16.0553 59.1953C21.8092 64.9493 29.6133 68.1818 37.7506 68.1818ZM75.2506 37.5C75.2506 58.2102 58.4608 75 37.7506 75C17.0404 75 0.25061 58.2102 0.25061 37.5C0.25061 16.7898 17.0404 0 37.7506 0C58.4608 0 75.2506 16.7898 75.2506 37.5ZM47.9779 52.5477L34.3415 38.9114V15.3409H41.1597V36.0886L52.7983 47.7273L47.9779 52.5477Z" fill="black"/>
</svg>
