<svg width="398" height="45" viewBox="0 0 398 45" fill="none" xmlns="http://www.w3.org/2000/svg">
<path d="M75.2464 14.7217L65.4268 36.4932H62.3894L66.038 28.8745L59.5731 14.7194H62.7679L67.4462 25.569H67.5073L72.0374 14.7194L75.2464 14.7217ZM34.4493 21.454V30.2741H31.3626V8.50265H39.5296C41.4678 8.4522 43.3549 9.12381 44.819 10.3852C46.2648 11.5632 47.0594 13.2288 47.0359 14.99C47.0459 15.8763 46.8513 16.7532 46.467 17.5534C46.0827 18.3535 45.519 19.0558 44.819 19.6065C43.3991 20.8452 41.6359 21.454 39.5296 21.454H34.4493ZM34.4376 11.1876V18.7807H39.6048C40.7297 18.8207 41.8252 18.4193 42.6539 17.6633C43.4508 16.9588 43.8904 15.9977 43.8904 15.0017C43.8904 13.9939 43.4485 13.0328 42.6539 12.34C42.248 11.9568 41.7694 11.6575 41.246 11.4592C40.7226 11.261 40.1648 11.1679 39.6048 11.1853L34.4376 11.1876ZM53.2187 14.7217C55.1793 14.7233 56.7301 15.266 57.8711 16.35C59.5825 17.9759 59.5731 18.9137 59.5731 20.7962V29.7982H57.0271V27.7687H56.9166C55.8164 29.4359 54.3549 30.2702 52.5322 30.2718C50.9642 30.2718 49.6665 29.7982 48.6133 28.8371C48.1059 28.3902 47.702 27.8396 47.4293 27.2231C47.1566 26.6066 47.0216 25.9389 47.0336 25.2657C47.032 23.7588 47.5868 22.5559 48.698 21.657C49.8029 20.7674 51.28 20.3219 53.1294 20.3203C54.7091 20.3219 56.0068 20.6212 57.0224 21.2184V20.5862C57.0257 20.1273 56.9301 19.673 56.7419 19.2538C56.5538 18.8346 56.2775 18.4601 55.9316 18.1555C55.2351 17.5079 54.3142 17.1513 53.3597 17.1594C51.8787 17.1594 50.7033 17.8033 49.8334 19.091L47.4943 17.584C48.781 15.6743 50.6868 14.7186 53.2116 14.7171L53.2187 14.7217ZM49.7794 25.3287C49.7739 25.6744 49.851 26.0165 50.0042 26.3271C50.1574 26.6376 50.3824 26.9078 50.6609 27.1156C51.2487 27.5891 51.9845 27.8457 52.7297 27.8317C53.844 27.8317 54.9207 27.3698 55.7177 26.5557C56.5616 25.7789 57.0412 24.6849 57.0412 23.5418C56.2106 22.8607 55.0555 22.5201 53.576 22.5201C52.4852 22.5201 51.5919 22.7883 50.8702 23.3225C50.1485 23.8684 49.7794 24.5286 49.7794 25.3287ZM12.8143 8.50265C15.9792 8.46618 19.0395 9.62632 21.3738 11.7475L17.7252 15.2956C16.3908 14.0711 14.6315 13.405 12.8143 13.4364C11.2282 13.4451 9.68424 13.9434 8.39648 14.8622C7.10872 15.781 6.14104 17.0746 5.62766 18.5638C5.0892 20.1066 5.0892 21.7843 5.62766 23.3272C6.14104 24.8163 7.10872 26.11 8.39648 27.0288C9.68424 27.9475 11.2282 28.4458 12.8143 28.4546C14.5398 28.4546 16.0232 28.03 17.1728 27.2765C17.8345 26.8496 18.4016 26.2932 18.8393 25.6415C19.2771 24.9897 19.5763 24.2562 19.7188 23.4858H12.8119V18.6991H24.8719C25.0192 19.5357 25.0929 20.3779 25.0929 21.2254C25.0929 25.0161 23.6965 28.2236 21.2845 30.3861C19.1663 32.2826 16.2654 33.386 12.8119 33.386C10.4547 33.3982 8.13972 32.7648 6.12185 31.5556C4.10398 30.3464 2.46142 28.6082 1.37494 26.5324C0.480928 24.8028 0.0146484 22.8869 0.0146484 20.9432C0.0146484 18.9994 0.480928 17.0835 1.37494 15.3539C2.46032 13.2802 4.10068 11.5434 6.11583 10.3344C8.13097 9.12529 10.443 8.49071 12.7978 8.50032L12.8143 8.50265Z" fill="black"/>
<path d="M127.484 10.8058C126.602 11.8728 125.192 12.7119 123.781 12.592C123.605 11.1535 124.299 9.61903 125.11 8.68397C125.991 7.59306 127.531 6.81385 128.789 6.75391C128.93 8.24041 128.354 9.71493 127.484 10.8058ZM128.765 12.8678C126.72 12.7479 124.969 14.0546 124.005 14.0546C123.017 14.0546 121.536 12.9277 119.914 12.9637C117.81 12.9996 115.859 14.2104 114.79 16.1405C112.58 20.0126 114.214 25.7308 116.353 28.8837C117.399 30.4421 118.645 32.1564 120.29 32.0964C121.854 32.0365 122.465 31.0655 124.346 31.0655C126.238 31.0655 126.79 32.0964 128.436 32.0725C130.14 32.0365 131.21 30.514 132.256 28.9556C133.443 27.1814 133.937 25.4671 133.96 25.3712C133.925 25.3352 130.669 24.0645 130.634 20.2284C130.599 17.0156 133.208 15.4931 133.326 15.3972C131.856 13.1675 129.564 12.9277 128.765 12.8678ZM140.566 8.52812V31.8926H144.128V23.9087H149.052C153.554 23.9087 156.704 20.7558 156.704 16.2004C156.704 11.645 153.601 8.52812 149.17 8.52812H140.566ZM144.128 11.585H148.23C151.321 11.585 153.084 13.2634 153.084 16.2124C153.084 19.1614 151.321 20.8637 148.218 20.8637H144.128V11.585ZM163.193 32.0725C165.426 32.0725 167.494 30.9216 168.435 29.0875H168.505V31.8926H171.796V20.2643C171.796 16.8957 169.152 14.7139 165.085 14.7139C161.312 14.7139 158.514 16.9197 158.409 19.9406H161.617C161.888 18.5021 163.193 17.555 164.979 17.555C167.154 17.555 168.376 18.586 168.376 20.4921V21.7868L163.933 22.0625C159.807 22.3143 157.574 24.0405 157.574 27.0375C157.586 30.0585 159.89 32.0725 163.193 32.0725ZM164.156 29.3032C162.264 29.3032 161.053 28.3682 161.053 26.9536C161.053 25.4791 162.217 24.6279 164.438 24.4961L168.388 24.2443V25.563C168.388 27.7448 166.566 29.3032 164.156 29.3032ZM176.204 38.2462C179.672 38.2462 181.305 36.8916 182.728 32.8037L188.969 14.9417H185.349L181.164 28.7398H181.094L176.909 14.9417H173.195L179.213 31.9526L178.884 32.9835C178.343 34.7338 177.462 35.4171 175.887 35.4171C175.605 35.4171 175.064 35.3811 174.841 35.3571V38.1623C175.052 38.2103 175.934 38.2462 176.204 38.2462Z" fill="black"/>
<path d="M280.871 11.2512C279.162 10.5775 277.356 10.2386 275.537 10.2503C269.665 10.2503 265.516 13.4752 265.491 18.0904C265.442 21.4825 268.432 23.3945 270.692 24.5377C273.013 25.7083 273.789 26.4372 273.778 27.4755C273.767 29.0755 271.923 29.7894 270.226 29.7894C267.867 29.7894 266.588 29.4399 264.616 28.5414L263.883 28.1645L263.047 33.496C264.482 34.1325 267.054 34.6916 269.709 34.744C275.964 34.744 280.042 31.5466 280.088 26.6169C280.136 23.9137 278.536 21.8619 275.126 20.1696C273.068 19.0788 271.78 18.335 271.78 17.2168C271.78 16.2283 272.88 15.19 275.176 15.19C276.7 15.1512 278.215 15.4563 279.624 16.0861L280.187 16.3581L281.011 11.2238L280.871 11.2512ZM296.135 10.6921H291.542C290.107 10.6921 289.042 11.1089 288.408 12.6565L279.581 34.4046H285.824L287.083 30.8427L294.7 30.8552C294.89 31.6864 295.428 34.4021 295.428 34.4021H300.941L296.135 10.6921ZM257.036 10.4974H262.981L259.261 34.2199H253.316L257.036 10.4849V10.4974ZM241.919 23.5617L242.527 26.864L248.351 10.6921H254.654L245.276 34.3646H239L233.857 14.3189C233.818 14.1519 233.748 13.9955 233.651 13.8593C233.555 13.7231 233.433 13.6102 233.294 13.5276C231.446 12.4846 229.486 11.694 227.459 11.1738L227.53 10.6771H237.122C238.415 10.7295 239.466 11.1738 239.825 12.6814L241.919 23.5742V23.5617ZM288.778 25.9929L291.159 19.3509C291.122 19.4133 291.648 17.9856 291.946 17.087L292.353 19.1262L293.731 25.9779H288.778V25.9929Z" fill="black"/>
<path d="M349.939 44.9004V41.9139C349.939 40.7687 349.245 40.0223 348.055 40.0223C347.46 40.0223 346.816 40.2214 346.37 40.8685C346.023 40.3209 345.527 40.0223 344.784 40.0223C344.288 40.0223 343.792 40.1715 343.395 40.7191V40.1218H342.354V44.9004H343.395V42.2621C343.395 41.4161 343.842 41.0177 344.536 41.0177C345.23 41.0177 345.577 41.4658 345.577 42.2621V44.9004H346.618V42.2621C346.618 41.4161 347.113 41.0177 347.758 41.0177C348.452 41.0177 348.799 41.4658 348.799 42.2621V44.9004H349.939ZM365.355 40.1218H363.67V38.6783H362.629V40.1218H361.687V41.0674H362.629V43.2578C362.629 44.353 363.075 45 364.265 45C364.711 45 365.206 44.8508 365.554 44.6517L365.256 43.7555C364.959 43.9546 364.612 44.0045 364.364 44.0045C363.868 44.0045 363.67 43.7059 363.67 43.2079V41.0674H365.355V40.1218ZM374.179 40.022C373.584 40.022 373.188 40.3209 372.94 40.7191V40.1218H371.899V44.9004H372.94V42.2125C372.94 41.4161 373.287 40.9681 373.931 40.9681C374.129 40.9681 374.377 41.0179 374.576 41.0676L374.873 40.0722C374.675 40.0223 374.377 40.0223 374.179 40.0223M360.844 40.5202C360.349 40.1717 359.655 40.0225 358.911 40.0225C357.722 40.0225 356.928 40.6198 356.928 41.5656C356.928 42.3621 357.523 42.81 358.564 42.9594L359.06 43.0093C359.605 43.1086 359.903 43.258 359.903 43.507C359.903 43.8553 359.506 44.1043 358.812 44.1043C358.118 44.1043 357.573 43.8553 357.226 43.6066L356.73 44.4029C357.275 44.8011 358.019 45.0002 358.762 45.0002C360.15 45.0002 360.944 44.3533 360.944 43.4571C360.944 42.6109 360.299 42.1628 359.308 42.0136L358.812 41.9637C358.366 41.9139 358.019 41.8145 358.019 41.5159C358.019 41.1674 358.366 40.9683 358.911 40.9683C359.506 40.9683 360.101 41.217 360.398 41.3665L360.844 40.5202ZM388.505 40.0225C387.91 40.0225 387.514 40.3211 387.266 40.7193V40.122H386.225V44.9006H387.266V42.2127C387.266 41.4164 387.613 40.9683 388.257 40.9683C388.455 40.9683 388.703 41.0182 388.902 41.0678L389.199 40.0724C389.001 40.0225 388.703 40.0225 388.505 40.0225ZM375.22 42.5113C375.22 43.9549 376.211 45.0002 377.748 45.0002C378.442 45.0002 378.938 44.851 379.433 44.4528L378.938 43.6066C378.541 43.9052 378.145 44.0544 377.698 44.0544C376.856 44.0544 376.261 43.4571 376.261 42.5113C376.261 41.6154 376.856 41.0179 377.698 40.9683C378.145 40.9683 378.541 41.1175 378.938 41.4164L379.433 40.5701C378.938 40.1717 378.442 40.0225 377.748 40.0225C376.211 40.0225 375.22 41.0678 375.22 42.5113ZM384.837 42.5113V40.122H383.796V40.7193C383.449 40.2715 382.953 40.0225 382.309 40.0225C380.97 40.0225 379.929 41.0678 379.929 42.5113C379.929 43.9549 380.97 45.0002 382.309 45.0002C383.003 45.0002 383.498 44.7514 383.796 44.3034V44.9006H384.837V42.5113ZM381.02 42.5113C381.02 41.6651 381.565 40.9683 382.457 40.9683C383.3 40.9683 383.895 41.6154 383.895 42.5113C383.895 43.3576 383.3 44.0544 382.457 44.0544C381.565 44.0045 381.02 43.3576 381.02 42.5113ZM368.578 40.0225C367.189 40.0225 366.198 41.018 366.198 42.5113C366.198 44.0047 367.189 45.0002 368.627 45.0002C369.321 45.0002 370.015 44.8011 370.56 44.3533L370.065 43.6066C369.668 43.9052 369.172 44.1043 368.677 44.1043C368.032 44.1043 367.388 43.8057 367.239 42.9592H370.759V42.5612C370.808 41.018 369.916 40.0225 368.578 40.0225ZM368.577 40.9184C369.222 40.9184 369.668 41.3168 369.767 42.0635H367.288C367.388 41.4164 367.834 40.9184 368.577 40.9184ZM394.404 42.5113V38.2305H393.363V40.7193C393.016 40.2715 392.52 40.0225 391.875 40.0225C390.537 40.0225 389.496 41.0678 389.496 42.5113C389.496 43.9549 390.537 45.0002 391.875 45.0002C392.57 45.0002 393.065 44.7514 393.363 44.3034V44.9006H394.404V42.5113ZM390.587 42.5113C390.587 41.6651 391.132 40.9683 392.024 40.9683C392.867 40.9683 393.462 41.6154 393.462 42.5113C393.462 43.3576 392.867 44.0544 392.024 44.0544C391.132 44.0045 390.587 43.3576 390.587 42.5113ZM355.788 42.5113V40.122H354.747V40.7193C354.4 40.2715 353.904 40.0225 353.26 40.0225C351.921 40.0225 350.88 41.0678 350.88 42.5113C350.88 43.9549 351.921 45.0002 353.26 45.0002C353.954 45.0002 354.45 44.7514 354.747 44.3034V44.9006H355.788V42.5113ZM351.921 42.5113C351.921 41.6651 352.467 40.9683 353.359 40.9683C354.202 40.9683 354.797 41.6154 354.797 42.5113C354.797 43.3576 354.202 44.0544 353.359 44.0544C352.467 44.0045 351.921 43.3576 351.921 42.5113Z" fill="black"/>
<path d="M360.499 3.83594H376.114V32.0103H360.499V3.83594Z" fill="#999999"/>
<path d="M361.492 17.9201C361.492 12.1957 364.168 7.11824 368.283 3.83281C365.259 1.44351 361.442 0 357.278 0C347.413 0 339.433 8.01414 339.433 17.9201C339.433 27.826 347.413 35.8402 357.278 35.8402C361.442 35.8402 365.259 34.3967 368.283 32.0071C364.168 28.7716 361.492 23.6445 361.492 17.9201Z" fill="black"/>
<path d="M397.181 17.9201C397.181 27.8258 389.201 35.8402 379.336 35.8402C375.172 35.8402 371.355 34.3967 368.331 32.0071C372.495 28.7219 375.122 23.6445 375.122 17.9201C375.122 12.1957 372.445 7.11824 368.331 3.83281C371.355 1.44351 375.172 0 379.336 0C389.201 0 397.181 8.06403 397.181 17.9201Z" fill="#D4D4D4"/>
</svg>
