<svg width="46" height="46" viewBox="0 0 46 46" fill="none" xmlns="http://www.w3.org/2000/svg">
<path d="M34.25 15.125C36.114 15.125 37.625 13.614 37.625 11.75C37.625 9.88604 36.114 8.375 34.25 8.375C32.386 8.375 30.875 9.88604 30.875 11.75C30.875 13.614 32.386 15.125 34.25 15.125Z" fill="black"/>
<path d="M32 2.75C38.21 2.75 43.25 7.79 43.25 14V32C43.25 38.21 38.21 43.25 32 43.25H14C7.79 43.25 2.75 38.21 2.75 32V14C2.75 7.79 7.79 2.75 14 2.75H32Z" stroke="black" stroke-width="4.5" stroke-linecap="round" stroke-linejoin="round"/>
<path d="M23 14C27.9725 14 32 18.0275 32 23C32 27.9725 27.9725 32 23 32C18.0275 32 14 27.9725 14 23C14 18.0275 18.0275 14 23 14Z" stroke="black" stroke-width="4.5" stroke-linecap="round" stroke-linejoin="round"/>
</svg>
