<svg width="18" height="21" viewBox="0 0 18 21" fill="none" xmlns="http://www.w3.org/2000/svg">
<path d="M13.875 6.5V6.625H14H17C17.2321 6.625 17.4546 6.71719 17.6187 6.88128C17.7828 7.04538 17.875 7.26794 17.875 7.5V18.5C17.875 19.534 17.034 20.375 16 20.375H2C0.966036 20.375 0.125 19.534 0.125 18.5V7.5C0.125 7.26794 0.217187 7.04538 0.381281 6.88128C0.545376 6.71719 0.767936 6.625 1 6.625H4H4.125V6.5V5.5C4.125 2.81204 6.31204 0.625 9 0.625C11.688 0.625 13.875 2.81204 13.875 5.5V6.5ZM12 6.625H12.125V6.5V5.5C12.125 3.77696 10.723 2.375 9 2.375C7.27696 2.375 5.875 3.77696 5.875 5.5V6.5V6.625H6H12ZM2 8.375H1.875V8.5V18.5V18.625H2H16.002H16.127L16.127 18.5L16.125 8.49998L16.125 8.375H16H14H13.875V8.5V10.375H12.125V8.5V8.375H12H6H5.875V8.5V10.375H4.125V8.5V8.375H4H2Z" fill="#212121" stroke="white" stroke-width="0.25"/>
</svg>
