<svg width="79" height="65" viewBox="0 0 79 65" fill="none" xmlns="http://www.w3.org/2000/svg">
<path d="M12.7228 20.4374C12.7228 21.8845 11.5168 23 10.0697 23H4.00978C2.56264 23 1.32654 21.8845 1.32654 20.4374V16.3673H5.15543V19.352H8.98432V3.52392H12.7228V20.4374ZM28.9619 23H19.9474C18.5002 23 17.2943 21.8845 17.2943 20.4374V14.3775C17.2943 12.9303 18.0179 12.1766 19.1937 12.1766H25.0727V10.2471H17.9576L17.9274 6.65939H26.7308C27.9971 6.65939 28.9619 7.41311 28.9619 8.86025V23ZM25.1631 19.3822V15.4628H21.1232V19.3822H25.1631ZM44.9204 20.769C44.9204 22.2161 44.1969 22.9699 43.0211 22.9699H37.6244V27.5223H33.7352V6.62924H42.2673C43.7145 6.62924 44.9204 7.74474 44.9204 9.19188V20.769ZM41.0915 19.5932V10.2772H37.534V19.5932H41.0915ZM61.3011 23H52.2866C50.8395 23 49.6335 21.8845 49.6335 20.4374V14.3775C49.6335 12.9303 50.3571 12.1766 51.5329 12.1766H57.4119V10.2471H50.2968L50.2666 6.65939H59.0701C60.3363 6.65939 61.3011 7.41311 61.3011 8.86025V23ZM57.5023 19.3822V15.4628H53.4624V19.3822H57.5023ZM77.1993 23H73.3705V10.3074H69.8129V23H66.0142V6.65939H74.5463C75.9934 6.65939 77.1993 7.77489 77.1993 9.22203V23Z" fill="#212121"/>
<circle cx="39.5002" cy="35.5148" r="5.07339" fill="#D31212"/>
<path d="M13.6312 52.2941C13.6312 53.7412 12.9076 54.4648 11.7318 54.4648H6.24473V62.4844H2.44599V43.0083H10.9781C12.4252 43.0083 13.6312 44.1238 13.6312 45.5709V52.2941ZM9.80228 50.847V46.6563H6.24473V50.847H9.80228ZM29.8891 62.4844H25.9698V56.1531H22.2012V62.4844H18.312V46.1438H22.2012V52.5051H25.9698V46.1438H29.8891V62.4844ZM45.4404 59.7408C45.4404 61.188 44.3852 62.4542 42.9381 62.4542H36.7275C35.2803 62.4542 34.2553 61.399 34.2553 59.9519L34.2854 48.7064C34.2854 47.2593 35.4914 46.1438 36.9385 46.1438H42.7873C44.2345 46.1438 45.4404 47.2593 45.4404 48.7064V59.7408ZM41.6115 49.5807H38.1143V58.8665H41.5814L41.6115 49.5807ZM61.5799 49.8822H57.3289V62.4844H53.4699V49.8822H49.2189V46.1438H61.5799V49.8822ZM76.5136 59.7408C76.5136 61.188 75.4584 62.4542 74.0113 62.4542H67.8007C66.3535 62.4542 65.3285 61.399 65.3285 59.9519L65.3586 48.7064C65.3586 47.2593 66.5646 46.1438 68.0117 46.1438H73.8606C75.3077 46.1438 76.5136 47.2593 76.5136 48.7064V59.7408ZM72.6848 49.5807H69.1875V58.8665H72.6546L72.6848 49.5807Z" fill="#212121"/>
</svg>
